Coordinates
version=1
nRows=16
nColumns=22
inDegrees=yes

Units are S.I. units (second, meters, Newtons, ...)
If the header above contains a line with 'inDegrees', this indicates whether rotational values are in degrees (yes) or radians (no).

endheader
time	pelvis_tilt	pelvis_list	pelvis_rotation	pelvis_tx	pelvis_ty	pelvis_tz	hip_flexion_r	hip_adduction_r	hip_rotation_r	knee_angle_r	ankle_angle_r	subtalar_angle_r	hip_flexion_l	hip_adduction_l	hip_rotation_l	knee_angle_l	ankle_angle_l	subtalar_angle_l	lumbar_extension	lumbar_bending	lumbar_rotation
      1.58000000	     -6.00694002	      1.10562759	    -18.28140781	     -0.94091908	      0.86970470	     -0.40127379	      5.34475538	     -0.88182167	      6.51764077	    -19.61233963	     23.97840097	     -7.39390603	     35.04074892	    -13.07855374	     -8.46664205	    -57.65347157	     13.59481184	      3.20891261	     -5.70385533	     -0.56779623	     19.91354795
      1.59000000	     -6.00298973	      1.20285071	    -18.27800553	     -0.93541140	      0.87021100	     -0.40071582	      4.37753971	     -1.17385021	      6.34733191	    -18.42802941	     23.73162345	     -7.12860538	     35.60986165	    -13.17522687	     -8.56310065	    -56.06567542	     13.23656924	      2.87948528	     -5.60948443	     -0.66563192	     20.29928085
      1.60000000	     -6.00730837	      1.25803168	    -18.23156924	     -0.92971256	      0.87044863	     -0.40027650	      3.40530946	     -1.42540367	      6.13138485	    -17.28273207	     23.52549187	     -6.86950586	     36.13476448	    -13.26650478	     -8.51633612	    -54.31541643	     12.85999904	      2.57672792	     -5.51739682	     -0.71284346	     20.62861668
      1.61000000	     -6.01829678	      1.27242265	    -18.15400729	     -0.92385889	      0.87040887	     -0.39995089	      2.44235867	     -1.63328350	      5.88237037	    -16.19995977	     23.34402952	     -6.63440044	     36.61777572	    -13.34960946	     -8.32068445	    -52.42443143	     12.44593425	      2.32967078	     -5.43369769	     -0.71196773	     20.91571590
      1.62000000	     -6.03029015	      1.26388339	    -18.06461885	     -0.91782622	      0.87006560	     -0.39971610	      1.48736946	     -1.81646652	      5.64366291	    -15.17998222	     23.27915078	     -6.38582259	     37.05255221	    -13.43196942	     -8.04129249	    -50.42380561	     12.04292711	      2.12016888	     -5.35368835	     -0.68218955	     21.16252383
      1.63000000	     -6.04408805	      1.22456803	    -17.96675167	     -0.91166607	      0.86944614	     -0.39954658	      0.55579136	     -1.96314462	      5.39654004	    -14.24450403	     23.24473624	     -6.16377220	     37.44545386	    -13.51741157	     -7.65269117	    -48.33199411	     11.60404817	      1.99600679	     -5.28615886	     -0.62404990	     21.38744969
      1.64000000	     -6.04881087	      1.16584690	    -17.88032653	     -0.90537735	      0.86857241	     -0.39942738	     -0.35474258	     -2.08794637	      5.17185698	    -13.40027791	     23.29025008	     -5.93950611	     37.77812283	    -13.60956520	     -7.20534628	    -46.16107029	     11.17474869	      1.95724792	     -5.23835472	     -0.55109545	     21.60210904
      1.65000000	     -6.05715287	      1.09405058	    -17.80593863	     -0.89895507	      0.86743838	     -0.39934654	     -1.22840801	     -2.19542018	      4.96480807	    -12.64796417	     23.38920625	     -5.73676736	     38.07168196	    -13.71623894	     -6.71916621	    -43.93842087	     10.75733602	      2.01644948	     -5.19310095	     -0.46704532	     21.80741792
      1.66000000	     -6.05743741	      1.01288484	    -17.75185109	     -0.89239206	      0.86608841	     -0.39927328	     -2.07715893	     -2.29310475	      4.77204356	    -11.98378599	     23.54950412	     -5.53829258	     38.31045500	    -13.83964507	     -6.21992240	    -41.67753042	     10.38539892	      2.17144923	     -5.16101680	     -0.38450316	     22.02005958
      1.67000000	     -6.07841740	      0.93250375	    -17.71336250	     -0.88568166	      0.86449523	     -0.39923180	     -2.87519770	     -2.38693235	      4.58217357	    -11.39231095	     23.74156787	     -5.37488122	     38.53920830	    -13.98344158	     -5.73259736	    -39.40681106	     10.04083481	      2.36816487	     -5.10550124	     -0.30114096	     22.24278913
      1.68000000	     -6.06589247	      0.84763544	    -17.71117574	     -0.87884254	      0.86276480	     -0.39916341	     -3.66653580	     -2.48527147	      4.45734856	    -10.90110140	     24.03408178	     -5.15616404	     38.68098612	    -14.14861563	     -5.27214254	    -37.12189149	      9.79880067	      2.68634408	     -5.09464127	     -0.23573360	     22.46516985
      1.69000000	     -6.07702509	      0.76677655	    -17.71926666	     -0.87184914	      0.86083262	     -0.39912936	     -4.40653509	     -2.58549848	      4.32447982	    -10.47596517	     24.33688624	     -4.96375530	     38.82817418	    -14.33525270	     -4.84405372	    -34.86823849	      9.57082410	      2.99078042	     -5.05681887	     -0.17331797	     22.69650765
      1.70000000	     -6.08866508	      0.68775234	    -17.74934090	     -0.86470411	      0.85875076	     -0.39909331	     -5.11586824	     -2.69107073	      4.21503128	    -10.12502461	     24.67806659	     -4.76141187	     38.95406399	    -14.55114646	     -4.47823787	    -32.66613172	      9.36309667	      3.30356815	     -5.01954339	     -0.12441916	     22.93984778
      1.71000000	     -6.09568999	      0.60892512	    -17.79703011	     -0.85739706	      0.85654074	     -0.39905804	     -5.80172846	     -2.80291739	      4.11901689	     -9.84798654	     25.04585284	     -4.55025131	     39.06481364	    -14.79698607	     -4.18648990	    -30.54737783	      9.15465493	      3.60092934	     -4.98792526	     -0.08971216	     23.19365070
      1.72000000	     -6.09548188	      0.52549050	    -17.86463368	     -0.84992966	      0.85421807	     -0.39902593	     -6.46582510	     -2.91837136	      4.04401651	     -9.64840163	     25.44125236	     -4.32085399	     39.16870507	    -15.07970588	     -3.98547832	    -28.54867798	      8.93598830	      3.87232688	     -4.96741284	     -0.06461658	     23.45944320
      1.73000000	     -6.07850289	      0.43847832	    -17.94412560	     -0.84228211	      0.85180662	     -0.39901438	     -7.12199167	     -3.04263099	      3.97635114	     -9.52226494	     25.84851816	     -4.09236359	     39.26947952	    -15.38985617	     -3.88629990	    -26.70732772	      8.69817530	      4.09081042	     -4.96788286	     -0.05296654	     23.72696712
